<svg width="36" height="28" viewBox="0 0 36 28" fill="none" xmlns="http://www.w3.org/2000/svg">
<path d="M30.1813 23.5812C30.1813 24.0062 29.8938 24.3125 29.4813 24.3125C29.0563 24.3125 28.7812 23.9875 28.7812 23.5812C28.7812 23.175 29.0563 22.85 29.4813 22.85C29.8938 22.85 30.1813 23.175 30.1813 23.5812ZM10.7563 22.85C10.3125 22.85 10.0562 23.175 10.0562 23.5812C10.0562 23.9875 10.3125 24.3125 10.7563 24.3125C11.1625 24.3125 11.4375 24.0062 11.4375 23.5812C11.4312 23.175 11.1625 22.85 10.7563 22.85ZM18.1 22.8312C17.7625 22.8312 17.5563 23.05 17.5063 23.375H18.7C18.6438 23.0188 18.425 22.8312 18.1 22.8312ZM24.8375 22.85C24.4125 22.85 24.1562 23.175 24.1562 23.5812C24.1562 23.9875 24.4125 24.3125 24.8375 24.3125C25.2625 24.3125 25.5375 24.0062 25.5375 23.5812C25.5375 23.175 25.2625 22.85 24.8375 22.85ZM31.4562 24.4813C31.4562 24.5 31.475 24.5125 31.475 24.55C31.475 24.5687 31.4562 24.5812 31.4562 24.6187C31.4375 24.6375 31.4375 24.65 31.425 24.6688C31.4062 24.6875 31.3938 24.7 31.3563 24.7C31.3375 24.7188 31.325 24.7188 31.2875 24.7188C31.2687 24.7188 31.2563 24.7188 31.2188 24.7C31.2 24.7 31.1875 24.6813 31.1688 24.6688C31.15 24.65 31.1375 24.6375 31.1375 24.6187C31.1188 24.5875 31.1188 24.5687 31.1188 24.55C31.1188 24.5187 31.1188 24.5 31.1375 24.4813C31.1375 24.45 31.1563 24.4313 31.1688 24.4125C31.1875 24.3938 31.2 24.3938 31.2188 24.3813C31.25 24.3625 31.2687 24.3625 31.2875 24.3625C31.3187 24.3625 31.3375 24.3625 31.3563 24.3813C31.3875 24.4 31.4062 24.4 31.425 24.4125C31.4437 24.425 31.4375 24.45 31.4562 24.4813ZM31.3187 24.5688C31.35 24.5688 31.35 24.55 31.3688 24.55C31.3875 24.5312 31.3875 24.5188 31.3875 24.5C31.3875 24.4812 31.3875 24.4688 31.3688 24.45C31.35 24.45 31.3375 24.4312 31.3 24.4312H31.2V24.65H31.25V24.5625H31.2687L31.3375 24.65H31.3875L31.3187 24.5688ZM36 3V25C36 26.6562 34.6562 28 33 28H3C1.34375 28 0 26.6562 0 25V3C0 1.34375 1.34375 0 3 0H33C34.6562 0 36 1.34375 36 3ZM4 11.725C4 16.5063 7.88125 20.3813 12.6562 20.3813C14.3563 20.3813 16.025 19.8687 17.4375 18.9375C12.8812 15.2313 12.9125 8.2375 17.4375 4.53125C16.025 3.59375 14.3563 3.0875 12.6562 3.0875C7.88125 3.08125 4 6.9625 4 11.725ZM18 18.525C22.4062 15.0875 22.3875 8.3875 18 4.93125C13.6125 8.3875 13.5938 15.0937 18 18.525ZM9.10625 23.2938C9.10625 22.75 8.75 22.3938 8.1875 22.375C7.9 22.375 7.59375 22.4625 7.3875 22.7812C7.2375 22.525 6.98125 22.375 6.625 22.375C6.3875 22.375 6.15 22.4625 5.9625 22.7125V22.4375H5.45V24.7313H5.9625C5.9625 23.55 5.80625 22.8438 6.525 22.8438C7.1625 22.8438 7.0375 23.4813 7.0375 24.7313H7.53125C7.53125 23.5875 7.375 22.8438 8.09375 22.8438C8.73125 22.8438 8.60625 23.4688 8.60625 24.7313H9.11875V23.2938H9.10625ZM11.9125 22.4375H11.4187V22.7125C11.25 22.5062 11.0125 22.375 10.6875 22.375C10.0437 22.375 9.55 22.8875 9.55 23.5812C9.55 24.2812 10.0437 24.7875 10.6875 24.7875C11.0125 24.7875 11.25 24.6688 11.4187 24.45V24.7375H11.9125V22.4375ZM14.4438 24.0375C14.4438 23.1 13.0125 23.525 13.0125 23.0875C13.0125 22.7312 13.7563 22.7875 14.1688 23.0187L14.375 22.6125C13.7875 22.2312 12.4875 22.2375 12.4875 23.125C12.4875 24.0188 13.9187 23.6438 13.9187 24.0625C13.9187 24.4563 13.075 24.425 12.625 24.1125L12.4062 24.5063C13.1062 24.9813 14.4438 24.8813 14.4438 24.0375ZM16.6562 24.6187L16.5187 24.1938C16.2812 24.325 15.7563 24.4688 15.7563 23.9375V22.9H16.575V22.4375H15.7563V21.7375H15.2437V22.4375H14.7687V22.8937H15.2437V23.9375C15.2437 25.0375 16.325 24.8375 16.6562 24.6187ZM17.4875 23.7812H19.2062C19.2062 22.7687 18.7437 22.3687 18.1187 22.3687C17.4562 22.3687 16.9813 22.8625 16.9813 23.575C16.9813 24.8563 18.3938 25.0687 19.0938 24.4625L18.8563 24.0875C18.3688 24.4875 17.6312 24.45 17.4875 23.7812ZM21.1812 22.4375C20.8937 22.3125 20.4563 22.325 20.2313 22.7125V22.4375H19.7188V24.7313H20.2313V23.4375C20.2313 22.7125 20.825 22.8063 21.0312 22.9125L21.1812 22.4375ZM21.8438 23.5812C21.8438 22.8687 22.5688 22.6375 23.1375 23.0562L23.375 22.65C22.65 22.0812 21.3312 22.3937 21.3312 23.5875C21.3312 24.825 22.7312 25.075 23.375 24.525L23.1375 24.1187C22.5625 24.525 21.8438 24.2812 21.8438 23.5812ZM26.0125 22.4375H25.5V22.7125C24.9812 22.025 23.6313 22.4125 23.6313 23.5812C23.6313 24.7812 25.0312 25.125 25.5 24.45V24.7375H26.0125V22.4375ZM28.1187 22.4375C27.9687 22.3625 27.4313 22.2562 27.1688 22.7125V22.4375H26.675V24.7313H27.1688V23.4375C27.1688 22.75 27.7313 22.7938 27.9688 22.9125L28.1187 22.4375ZM30.6375 21.5063H30.1437V22.7125C29.6312 22.0312 28.275 22.3937 28.275 23.5812C28.275 24.7937 29.6812 25.1188 30.1437 24.45V24.7375H30.6375V21.5063ZM31.1125 16.8125V17.1H31.1625V16.8125H31.2812V16.7625H30.9938V16.8125H31.1125ZM31.525 24.55C31.525 24.5187 31.525 24.4813 31.5062 24.45C31.4875 24.4313 31.475 24.4 31.4562 24.3813C31.4375 24.3625 31.4063 24.35 31.3875 24.3312C31.3563 24.3312 31.3187 24.3125 31.2875 24.3125C31.2687 24.3125 31.2375 24.3312 31.2 24.3312C31.1688 24.35 31.15 24.3625 31.1312 24.3813C31.1 24.4 31.0812 24.4313 31.0812 24.45C31.0625 24.4813 31.0625 24.5187 31.0625 24.55C31.0625 24.5687 31.0625 24.6 31.0812 24.6375C31.0812 24.6563 31.1 24.6875 31.1312 24.7062C31.15 24.725 31.1625 24.7375 31.2 24.7563C31.2313 24.775 31.2687 24.775 31.2875 24.775C31.3187 24.775 31.3563 24.775 31.3875 24.7563C31.4063 24.7375 31.4375 24.725 31.4562 24.7062C31.475 24.6875 31.4875 24.6563 31.5062 24.6375C31.525 24.6 31.525 24.5687 31.525 24.55ZM31.725 16.7563H31.6375L31.5375 16.975L31.4375 16.7563H31.35V17.0938H31.4V16.8375L31.5 17.0562H31.5687L31.6562 16.8375V17.0938H31.725V16.7563ZM32 11.725C32 6.9625 28.1188 3.08125 23.3438 3.08125C21.6437 3.08125 19.975 3.59375 18.5625 4.525C23.0687 8.23125 23.1375 15.2437 18.5625 18.9312C19.975 19.8687 21.6562 20.375 23.3438 20.375C28.1188 20.3813 32 16.5063 32 11.725Z" fill="#FAFBFF"/>
</svg>
