<svg width="122" height="57" viewBox="0 0 122 57" fill="none" xmlns="http://www.w3.org/2000/svg">
<path d="M18.63 29H14.013L6.291 17.309V29H1.674V10.046H6.291L14.013 21.791V10.046H18.63V29ZM30.9407 29.189C29.1587 29.189 27.5207 28.775 26.0267 27.947C24.5507 27.119 23.3717 25.967 22.4897 24.491C21.6257 22.997 21.1937 21.323 21.1937 19.469C21.1937 17.615 21.6257 15.95 22.4897 14.474C23.3717 12.998 24.5507 11.846 26.0267 11.018C27.5207 10.19 29.1587 9.776 30.9407 9.776C32.7227 9.776 34.3517 10.19 35.8277 11.018C37.3217 11.846 38.4917 12.998 39.3377 14.474C40.2017 15.95 40.6337 17.615 40.6337 19.469C40.6337 21.323 40.2017 22.997 39.3377 24.491C38.4737 25.967 37.3037 27.119 35.8277 27.947C34.3517 28.775 32.7227 29.189 30.9407 29.189ZM30.9407 24.977C32.4527 24.977 33.6587 24.473 34.5587 23.465C35.4767 22.457 35.9357 21.125 35.9357 19.469C35.9357 17.795 35.4767 16.463 34.5587 15.473C33.6587 14.465 32.4527 13.961 30.9407 13.961C29.4107 13.961 28.1867 14.456 27.2687 15.446C26.3687 16.436 25.9187 17.777 25.9187 19.469C25.9187 21.143 26.3687 22.484 27.2687 23.492C28.1867 24.482 29.4107 24.977 30.9407 24.977ZM60.9953 10.046L54.2723 29H48.4943L41.7713 10.046H46.6853L51.3833 24.356L56.1083 10.046H60.9953ZM74.724 25.652H67.65L66.516 29H61.683L68.541 10.046H73.887L80.745 29H75.858L74.724 25.652ZM73.536 22.088L71.187 15.149L68.865 22.088H73.536Z" fill="#FBE08C"/>
<path d="M23.139 38.046V57H18.522V45.633L14.283 57H10.557L6.291 45.606V57H1.674V38.046H7.128L12.447 51.168L17.712 38.046H23.139ZM38.2582 53.652H31.1842L30.0502 57H25.2172L32.0752 38.046H37.4212L44.2792 57H39.3922L38.2582 53.652ZM37.0702 50.088L34.7212 43.149L32.3992 50.088H37.0702ZM56.0324 57L52.0904 49.845H50.9834V57H46.3664V38.046H54.1154C55.6094 38.046 56.8784 38.307 57.9224 38.829C58.9844 39.351 59.7764 40.071 60.2984 40.989C60.8204 41.889 61.0814 42.897 61.0814 44.013C61.0814 45.273 60.7214 46.398 60.0014 47.388C59.2994 48.378 58.2554 49.08 56.8694 49.494L61.2434 57H56.0324ZM50.9834 46.578H53.8454C54.6914 46.578 55.3214 46.371 55.7354 45.957C56.1674 45.543 56.3834 44.958 56.3834 44.202C56.3834 43.482 56.1674 42.915 55.7354 42.501C55.3214 42.087 54.6914 41.88 53.8454 41.88H50.9834V46.578ZM74.9687 57L68.5967 48.63V57H63.9797V38.046H68.5967V46.362L74.9147 38.046H80.3417L72.9977 47.334L80.6117 57H74.9687ZM87.4228 41.745V45.579H93.6058V49.143H87.4228V53.301H94.4158V57H82.8058V38.046H94.4158V41.745H87.4228ZM111.048 38.046V41.745H106.026V57H101.409V41.745H96.3873V38.046H111.048Z" fill="#FBE08C"/>
<g clip-path="url(#clip0_65_436)">
<path d="M99.3116 13.5623C96.908 13.8479 91.3371 15.1896 88.275 18.2757M101.518 18.3422C98.0141 19.2621 89.865 22.7506 85.3031 29.3423M101.596 23.2487C99.6685 24.3601 95.215 27.2581 92.8135 29.9633M107.241 13.5281L109.266 9.48642L111.285 13.5323L115.329 14.2078L111.956 17.5763L113.303 21.6215L109.26 19.5964L105.214 21.6157L106.565 17.5732L103.196 14.2007L107.241 13.5281Z" stroke="#FBE08C" stroke-width="2" stroke-linecap="round" stroke-linejoin="round"/>
</g>
<defs>
<clipPath id="clip0_65_436">
<rect width="32.354" height="32.354" fill="white" transform="translate(90.3911) rotate(15.0316)"/>
</clipPath>
</defs>
</svg>
