<svg width="36" height="28" viewBox="0 0 36 28" fill="none" xmlns="http://www.w3.org/2000/svg">
<path d="M11.6438 14.1375C11.6438 14.9 11.0375 15.4813 10.2688 15.4813C9.69375 15.4813 9.26875 15.1563 9.26875 14.5438C9.26875 13.7813 9.8625 13.1687 10.625 13.1687C11.2063 13.1687 11.6438 13.525 11.6438 14.1375ZM5.03125 11.1062H4.7375C4.64375 11.1062 4.55 11.1687 4.5375 11.275L4.26875 12.9438L4.78125 12.925C5.46875 12.925 6 12.8313 6.125 12.0375C6.26875 11.2 5.7375 11.1062 5.03125 11.1062ZM22.7812 11.1062H22.5C22.3875 11.1062 22.3125 11.1687 22.3 11.275L22.0375 12.9438L22.5375 12.925C23.35 12.925 23.9125 12.7375 23.9125 11.8C23.9063 11.1375 23.3125 11.1062 22.7812 11.1062ZM36 3V25C36 26.6562 34.6562 28 33 28H3C1.34375 28 0 26.6562 0 25V3C0 1.34375 1.34375 0 3 0H33C34.6562 0 36 1.34375 36 3ZM8.01875 11.4625C8.01875 10.15 7.00625 9.7125 5.85 9.7125H3.35C3.19375 9.7125 3.0375 9.8375 3.025 10.0063L2 16.3875C1.98125 16.5125 2.075 16.6375 2.2 16.6375H3.3875C3.55625 16.6375 3.7125 16.4562 3.73125 16.2812L4.0125 14.6187C4.075 14.1687 4.8375 14.325 5.1375 14.325C6.925 14.325 8.01875 13.2625 8.01875 11.4625ZM13.2812 12.0125H12.0938C11.8563 12.0125 11.8438 12.3562 11.8313 12.525C11.4688 11.9937 10.9438 11.9 10.35 11.9C8.81875 11.9 7.65 13.2438 7.65 14.725C7.65 15.9438 8.4125 16.7375 9.63125 16.7375C10.1938 16.7375 10.8938 16.4312 11.2875 15.9937C11.2563 16.0875 11.225 16.2875 11.225 16.3813C11.225 16.525 11.2875 16.6313 11.425 16.6313H12.5C12.6688 16.6313 12.8125 16.45 12.8438 16.275L13.4812 12.2563C13.5 12.1375 13.4062 12.0125 13.2812 12.0125ZM15.8125 18.1313L19.7938 12.3438C19.825 12.3125 19.825 12.2813 19.825 12.2375C19.825 12.1313 19.7313 12.0188 19.625 12.0188H18.425C18.3187 12.0188 18.2062 12.0813 18.1437 12.175L16.4875 14.6125L15.8 12.2688C15.75 12.1313 15.6125 12.0188 15.4563 12.0188H14.2875C14.1813 12.0188 14.0875 12.1313 14.0875 12.2375C14.0875 12.3125 15.3063 15.7875 15.4125 16.1187C15.2438 16.3562 14.1313 17.9062 14.1313 18.0938C14.1313 18.2062 14.225 18.2938 14.3313 18.2938H15.5312C15.6437 18.2875 15.75 18.225 15.8125 18.1313ZM25.7687 11.4625C25.7687 10.15 24.7563 9.7125 23.6 9.7125H21.1187C20.95 9.7125 20.7937 9.8375 20.775 10.0063L19.7625 16.3813C19.75 16.5063 19.8437 16.6313 19.9625 16.6313H21.2437C21.3687 16.6313 21.4625 16.5375 21.4937 16.4312L21.775 14.6187C21.8375 14.1687 22.6 14.325 22.9 14.325C24.675 14.325 25.7687 13.2625 25.7687 11.4625ZM31.0312 12.0125H29.8438C29.6063 12.0125 29.5938 12.3562 29.575 12.525C29.2313 11.9937 28.7 11.9 28.0938 11.9C26.5625 11.9 25.3937 13.2438 25.3937 14.725C25.3937 15.9438 26.1562 16.7375 27.375 16.7375C27.9563 16.7375 28.6562 16.4312 29.0312 15.9937C29.0125 16.0875 28.9688 16.2875 28.9688 16.3813C28.9688 16.525 29.0313 16.6313 29.1688 16.6313H30.25C30.4188 16.6313 30.5625 16.45 30.5938 16.275L31.2313 12.2563C31.25 12.1375 31.1562 12.0125 31.0312 12.0125ZM34 9.93125C34 9.80625 33.9062 9.7125 33.8 9.7125H32.6437C32.55 9.7125 32.4562 9.7875 32.4437 9.88125L31.4312 16.3813L31.4125 16.4125C31.4125 16.525 31.5063 16.6313 31.6313 16.6313H32.6625C32.8187 16.6313 32.975 16.45 32.9875 16.275L34 9.95V9.93125ZM28.375 13.1687C27.6125 13.1687 27.0187 13.775 27.0187 14.5438C27.0187 15.15 27.4563 15.4813 28.0312 15.4813C28.7812 15.4813 29.3875 14.9063 29.3875 14.1375C29.3938 13.525 28.9563 13.1687 28.375 13.1687Z" fill="#FAFBFF"/>
</svg>
