<svg width="36" height="29" viewBox="0 0 36 29" fill="none" xmlns="http://www.w3.org/2000/svg">
<path d="M27.72 14.94H29.52L28.98 12.42V11.7L28.62 12.42L27.72 14.94Z" fill="#FAFBFF"/>
<path fill-rule="evenodd" clip-rule="evenodd" d="M0 3.6C0 1.62 1.62 0 3.6 0H32.4C33.3548 0 34.2705 0.379284 34.9456 1.05442C35.6207 1.72955 36 2.64522 36 3.6V25.2C36 26.1548 35.6207 27.0705 34.9456 27.7456C34.2705 28.4207 33.3548 28.8 32.4 28.8H3.6C2.64522 28.8 1.72955 28.4207 1.05442 27.7456C0.379285 27.0705 0 26.1548 0 25.2V3.6ZM22.5 9.36C23.22 9.36 23.94 9.36 24.48 9.72L24.3 11.52H24.12C23.5784 11.1838 22.9572 10.9975 22.32 10.98C21.42 10.98 21.06 11.52 21.06 11.88C21.06 12.24 21.42 12.42 22.32 12.78C23.58 13.5 24.12 14.22 24.12 15.12C24.12 16.92 22.68 18.18 20.16 18.18C19.08 18.18 18.18 17.82 17.64 17.64L18 15.84H18.18C18.9 16.2 19.44 16.38 20.34 16.38C21.06 16.38 21.78 16.02 21.78 15.48C21.78 15.12 21.42 14.94 20.52 14.4C19.62 14.04 18.54 13.32 18.54 12.06C18.54 10.44 20.34 9.36 22.5 9.36ZM28.8 9.36H30.6L32.4 18H30.24L29.88 16.74H27L26.46 18H24.12L27.54 10.08C27.72 9.54 28.08 9.54 28.8 9.54V9.36ZM17.64 9.36H15.3L13.86 18H16.2L17.64 9.36ZM9.54 15.3L9.36 14.04L8.46 10.08C8.46 9.54 7.92 9.54 7.38 9.36H3.78V9.54L5.94 10.44L6.12 10.8L8.1 18H10.8L14.4 9.54H12.06L9.72 15.3H9.54Z" fill="#FAFBFF"/>
</svg>
